<?xml version="1.0" encoding="UTF-8"?>
<svg version="1.1" viewBox="0 0 2000 2000" width="1280" height="1280" xmlns="http://www.w3.org/2000/svg">
<path transform="translate(1876,620)" d="m0 0h2v1143l-283 1-7-1v-847l10-14 14-19 20-28 10-13 13-19 10-13 13-18 12-17 14-19 10-13 8-12 12-16 13-18 7-10 2-2 27-5 18-6 19-9 20-12 13-10 15-14z" fill="#353535"/>
<path transform="translate(1720,404)" d="m0 0h25l15 3 13 5 13 7 10 8 12 12 9 14 6 14 4 15 1 6v20l-3 16-5 14-6 12-7 9-9 10-11 9-16 8-15 5-16 3h-14l-17-2-11 15-9 12-11 16-12 16-14 19-8 12-10 13-13 18-10 14-13 18-10 13-11 16-12 16-13 18-7 10-14 19-13 18-12 17-14 18-15 22-10 13-13 18-12 17-14 19-11 15-9 13-9 12-14 19-9 13-9 12-13 18-10 14-13 18-11 15-12 17 1 5 4 7 4 10 3 14 1 8v17l-3 18-6 16-9 14-9 10-8 8-10 7-18 8-15 4-7 1h-21l-15-3-12-4-17-9-14-12-10-13-8-14-5-14-3-13v-29l-19-12-21-13-30-18-17-11-24-14-19-12-24-15-19-11-17-11-30-18-23-14-14-9-19-11-22-14-21-13-27-16-7-5-4 1-14 8-12 5-12 3-7 1h-20l-17-3-12-5-13-7-4-3-4 1-21 13-22 13-19 12-23 14-20 12-22 14-27 16-24 15-15 9-18 11-19 12-18 11-22 13-22 14-19 11-38 24-3 2 1 17-2 18-5 16-8 16-10 13-7 8-11 8-16 8-15 5-12 2h-22l-18-4-16-7-10-6-10-9-7-7-10-14-6-12-5-17-1-7v-23l3-16 5-13 7-12 11-14 9-9 13-8 15-7 15-4 9-1h17l16 3 14 5 18 10 12-6 15-10 20-12 14-9 16-9 17-11 25-15 23-14 19-12 19-11 14-9 21-13 13-8 17-10 19-12 15-9 28-17 17-11 23-13 8-6-1-19 3-21 5-14 9-16 11-14 12-10 17-10 18-6 22-2 19 2 16 5 17 9 11 9 10 10 7 10 8 15 4 12 3 19v10l-1 11 10 7 24 14 19 12 21 13 27 16 14 9 22 13 22 14 21 13 19 11 14 9 26 16 17 10 17 11 26 15 17 11 21 13 17 10 26-13 16-4 8-1h16l16 2 12-17 13-17 11-16 12-16 14-19 10-14 12-17 13-17 8-12 16-21 9-13 10-14 14-19 12-16 11-16 16-21 10-15 16-21 13-19 14-19 12-16 10-14 12-17 10-13 9-13 10-14 9-12 14-19 13-19 11-14 13-18 9-13 12-16 11-15-1-5-7-17-4-13-1-6v-25l4-17 7-16 6-10 12-14 14-11 16-8 12-4z" fill="#363636"/>
<path transform="translate(666,1069)" d="m0 0h7l20 4 8 1h37l19-3 8-2h7l18 11 22 13 22 14 28 17 1 1v638h-288l-1-2v-561l1-75 9-6 22-13 17-11 18-11 22-13z" fill="#363636"/>
<path transform="translate(1369,1319)" d="m0 0h2v216l-1 228-282 1-6-1-1-10v-433l4 2 15 15 14 11 15 10 23 12 18 7 21 5 15 2h39l26-4 16-5 18-7 18-10 18-12 10-9 8-7z" fill="#363636"/>
<path transform="translate(67,1319)" d="m0 0 4 2 9 10 9 9 15 11 18 11 16 8 18 7 22 5 15 2h38l25-4 20-6 18-8 15-8 19-13 13-11 8-8 5-7h2v444h-288l-1-3z" fill="#363636"/>
<path transform="translate(1589,177)" d="m0 0h287l2 3v197l-4-2-7-8-8-8-14-11-15-10-18-10-20-8-20-5-18-3-26-1-23 2-24 5-16 5-14 6-22 13-16 12-12 11-3 3h-2l-2 4-4 5h-2v-199z" fill="#393939"/>
<path transform="translate(575,565)" d="m0 0h288l1 200-4-2-11-12-14-12-17-12-14-8-25-10-21-6-17-3-13-1h-18l-20 2-22 5-18 6-20 9-15 9-13 10-14 12-5 5-7 8h-1l-1-121z" fill="#363636"/>
<path transform="translate(69,875)" d="m0 0h285l2 1v82l-9 7-25 15-23 14-16 10-19 12-12-2-17-3-10-1h-27l-22 3-21 5-19 7-19 10-12 8-15 11-12 11-9 11h-1l-1-111v-83z" fill="#363636"/>
<path transform="translate(1083,875)" d="m0 0h218l-2 4-10 13-10 15-14 19-13 18-10 14-14 19-8 11-14 20-3 3-18 3-9 2-7-3-21-13-19-12-25-15-21-13-1-1-1-10v-72z" fill="#393939"/>
<path transform="translate(1876,620)" d="m0 0h2v1143h-1l-1-31v-1106l1-3-4 2 2-4z" fill="#FEFEFE"/>
<path transform="translate(1081,1320)" d="m0 0 3 1-1 442h-1l-1-10z" fill="#FEFEFE"/>
</svg>
